<svg viewBox="0 0 96.83 97.18" xmlns="http://www.w3.org/2000/svg" xmlns:xlink="http://www.w3.org/1999/xlink" id="Icons" overflow="hidden"><defs></defs><path d="M48.59 27.79 74.95 27.79 74.95 21.86" stroke="#01A88D" stroke-width="2" stroke-linejoin="round" fill="none"/><path d="M48.59 87.29 74.95 87.29 74.95 81.36" stroke="#01A88D" stroke-width="2" stroke-linejoin="round" fill="none"/><path d="M48.59 56.31 86.13 56.31 86.13 50.38" stroke="#01A88D" stroke-width="2" stroke-linejoin="round" fill="none"/><path d="M1 59.66 1 49.11 1 38.56 1 59.66Z" stroke="#7B27FF" stroke-width="2" stroke-linejoin="round" fill="none"/><path d="M24.8 49.11 24.8 36.69 36.69 30.74 36.69 18.85" stroke="#000000" stroke-width="2" stroke-linejoin="round" fill="none"/><line x1="24.8" y1="36.69" x2="12.9" y2="30.74" stroke="#000000" stroke-width="2" stroke-linejoin="round" fill="none"/><line x1="24.8" y1="22.81" x2="24.8" y2="8.2" stroke="#000000" stroke-width="2" stroke-linejoin="round" fill="none"/><line x1="12.9" y1="68.42" x2="24.8" y2="60.49" stroke="#000000" stroke-width="2" stroke-linejoin="round" fill="none"/><line x1="24.53" y1="89.27" x2="35.23" y2="82.98" stroke="#000000" stroke-width="2" stroke-linejoin="round" fill="none"/><line x1="22.81" y1="74.37" x2="48.59" y2="60.49" stroke="#000000" stroke-width="2" stroke-linejoin="round" fill="none"/><line x1="12.9" y1="56.52" x2="24.8" y2="48.59" stroke="#000000" stroke-width="2" stroke-linejoin="round" fill="none"/><path d="M48.59 48.59 48.59 89.81 36.69 96.18 12.9 82.3 12.9 68.42 1 60.49 1 49.11 1 36.69 12.9 30.64 12.9 14.88 36.69 1 48.59 8.93 48.59 49.11" stroke="#000000" stroke-width="2" stroke-linejoin="round" fill="none"/><line x1="36.69" y1="56.52" x2="24.8" y2="48.59" stroke="#000000" stroke-width="2" stroke-linejoin="round" fill="none"/><g><path d="M84.65 17.81 84.65 6.6 74.95 1 65.25 6.6 65.25 17.81 74.95 23.41 84.65 17.81Z" stroke="#01A88D" stroke-width="2" stroke-linejoin="round" fill="none"/><path d="M65.25 6.69 74.95 12.29 84.65 6.69" stroke="#01A88D" stroke-width="2" stroke-linejoin="round" fill="none"/><line x1="74.95" y1="12.29" x2="74.95" y2="23.41" stroke="#01A88D" stroke-width="2" stroke-linejoin="round" fill="none"/></g><g><path d="M84.65 78.26 84.65 67.05 74.95 61.45 65.25 67.05 65.25 78.26 74.95 83.86 84.65 78.26Z" stroke="#01A88D" stroke-width="2" stroke-linejoin="round" fill="none"/><path d="M65.25 67.14 74.95 72.74 84.65 67.14" stroke="#01A88D" stroke-width="2" stroke-linejoin="round" fill="none"/><line x1="74.95" y1="72.74" x2="74.95" y2="83.86" stroke="#01A88D" stroke-width="2" stroke-linejoin="round" fill="none"/></g><g><path d="M95.83 46.22 95.83 35.01 86.13 29.41 76.42 35.01 76.42 46.22 86.13 51.82 95.83 46.22Z" stroke="#01A88D" stroke-width="2" stroke-linejoin="round" fill="none"/><path d="M76.42 35.1 86.13 40.7 95.83 35.1" stroke="#01A88D" stroke-width="2" stroke-linejoin="round" fill="none"/><line x1="86.13" y1="40.7" x2="86.13" y2="51.82" stroke="#01A88D" stroke-width="2" stroke-linejoin="round" fill="none"/></g></svg>