<svg viewBox="0 0 113 90.41" xmlns="http://www.w3.org/2000/svg" xmlns:xlink="http://www.w3.org/1999/xlink" id="Icons" overflow="hidden"><defs><clipPath id="clippath"><rect x="47.14" y="0" width="65.86" height="89.41" fill="none"/></clipPath></defs><g clip-path="url(#clippath)"><path d="M86.79 61.67 86.79 18.36C86.79 17.34 85.87 16.58 84.87 16.76L82.48 17.21C75.23 18.56 66.26 16.02 62.01 9.58L62.01 9.58C57.83 15.97 49.77 18.56 42.52 17.21L39.1 16.69C38.12 16.54 37.23 17.3 37.23 18.3L37.23 63.81C37.23 64.4 37.55 64.94 38.06 65.23L61.21 78.2C61.7 78.48 62.3 78.48 62.8 78.2L74.52 71.64" stroke="#7CF9FF" stroke-width="2" stroke-linejoin="round" fill="none"/><rect x="70.34" y="62.04" rx="4.76" ry="4.76" width="27.38" height="9.59" stroke="#7CF9FF" stroke-width="2" stroke-linejoin="round" fill="none"/><g><path d="M50.88 52.82C50.62 53.89 50.48 55.01 50.48 56.17L73.66 56.17C73.66 49.07 68.47 43.31 62.07 43.31 59.34 43.31 56.84 44.35 54.86 46.1" stroke="#7CF9FF" stroke-width="2" stroke-linejoin="round" fill="none"/><path d="M51.48 51.27C51.78 50.4 52.42 48.89 53.53 47.55" stroke="#7CF9FF" stroke-width="2" stroke-linejoin="round" fill="none"/><circle cx="62.08" cy="36.38" r="6.93" stroke="#7CF9FF" stroke-width="2" stroke-linejoin="round" fill="none"/></g><circle cx="92.39" cy="66.83" r="2.79" fill="#7CF9FF"/><circle cx="75.5" cy="79.33" r="2.79" fill="#7CF9FF"/><rect x="70.34" y="74.48" rx="4.76" ry="4.76" width="27.38" height="9.59" stroke="#7CF9FF" stroke-width="2" stroke-linejoin="round" fill="none"/></g><path d="M47.15 7.07 47.15 84.41 32.35 89.41 12.5 77.73 12.5 62.11 1 55.34 1 36.15 12.36 29.42 12.36 13.76 32.4 2.24 47.15 7.07Z" stroke="#FFFFFF" stroke-width="2" stroke-linejoin="round" fill="none"/><line x1="24.07" y1="23.19" x2="24.07" y2="7.08" stroke="#FFFFFF" stroke-width="2" stroke-linejoin="round" fill="none"/><line x1="22.47" y1="70.03" x2="47.49" y2="55.29" stroke="#FFFFFF" stroke-width="2" stroke-linejoin="round" fill="none"/><line x1="37.14" y1="76.25" x2="24.3" y2="84.34" stroke="#FFFFFF" stroke-width="2" stroke-linejoin="round" fill="none"/><line x1="22.81" y1="55.29" x2="12.11" y2="62.04" stroke="#FFFFFF" stroke-width="2" stroke-linejoin="round" fill="none"/><path d="M33.77 18.35 33.77 29.42 24.07 36.24 12.36 29.42" stroke="#FFFFFF" stroke-width="2" stroke-linejoin="round" fill="none"/><path d="M15.82 48.95 24.07 43.99 24.07 36.67" stroke="#FFFFFF" stroke-width="2" stroke-linejoin="round" fill="none"/><line x1="32.32" y1="48.95" x2="24.07" y2="43.99" stroke="#FFFFFF" stroke-width="2" stroke-linejoin="round" fill="none"/></svg>