<svg viewBox="0 0 116.39 89.84" xmlns="http://www.w3.org/2000/svg" xmlns:xlink="http://www.w3.org/1999/xlink" id="Icons" overflow="hidden"><defs><clipPath id="clippath"><rect x="47.35" y="9.62" width="69.04" height="80.22" fill="none"/></clipPath></defs><g clip-path="url(#clippath)"><g><g><g><line x1="45.67" y1="72.75" x2="45.67" y2="27.91" stroke="#7B27FF" stroke-width="2" stroke-linejoin="round" fill="none"/><line x1="35.63" y1="27.91" x2="92.68" y2="27.91" stroke="#01A88D" stroke-width="2" stroke-linejoin="round" fill="none"/></g><path d="M92.68 50.96 92.68 19.63C92.68 18.78 92.15 18.1 91.49 18.1L36.85 18.1C36.19 18.1 35.66 18.79 35.66 19.63L35.63 71.22C35.63 72.06 36.16 72.75 36.81 72.75L81.74 72.75" stroke="#01A88D" stroke-width="2" stroke-linejoin="round" fill="none"/></g><line x1="76" y1="23" x2="78.64" y2="23" stroke="#01A88D" stroke-width="2" stroke-linejoin="round" fill="none"/><line x1="80.22" y1="23" x2="82.86" y2="23" stroke="#01A88D" stroke-width="2" stroke-linejoin="round" fill="none"/><line x1="84.45" y1="23" x2="87.09" y2="23" stroke="#01A88D" stroke-width="2" stroke-linejoin="round" fill="none"/></g><g><path d="M62.04 40 55.23 46.81 61.86 53.43" stroke="#01A88D" stroke-width="2" stroke-linejoin="round" fill="none"/><line x1="72.37" y1="35.87" x2="64.14" y2="57.57" stroke="#01A88D" stroke-width="2" stroke-linejoin="round" fill="none"/><path d="M74.47 53.43 81.28 46.62 74.66 40" stroke="#01A88D" stroke-width="2" stroke-linejoin="round" fill="none"/></g><g><rect x="82.13" y="62.31" width="16.38" height="16.27" stroke="#01A88D" stroke-width="2" stroke-linejoin="round" fill="none"/><path d="M90.14 53.55 90.51 53.55C92.93 53.55 94.9 55.52 94.9 57.94L94.9 61.38C94.9 61.89 94.48 62.31 93.97 62.31L86.67 62.31C86.16 62.31 85.74 61.89 85.74 61.38L85.74 57.94C85.74 55.52 87.71 53.55 90.13 53.55Z" stroke="#01A88D" stroke-width="2" stroke-linejoin="round" fill="none"/><circle cx="90.32" cy="68.38" r="1.85" stroke="#01A88D" stroke-width="2" stroke-linejoin="round" fill="none"/><line x1="90.32" y1="74.37" x2="90.32" y2="70.23" stroke="#01A88D" stroke-width="2" stroke-linejoin="round" fill="none"/></g></g><path d="M47.35 5.85 47.35 83.53 32.48 88.55 12.55 76.82 12.55 61.13 1 54.33 1 35.05 12.41 28.3 12.41 12.57 32.54 1 47.35 5.85Z" stroke="#FFFFFF" stroke-width="2" stroke-linejoin="round" fill="none"/><line x1="24.17" y1="22.04" x2="24.17" y2="5.86" stroke="#FFFFFF" stroke-width="2" stroke-linejoin="round" fill="none"/><line x1="22.57" y1="69.09" x2="47.69" y2="54.29" stroke="#FFFFFF" stroke-width="2" stroke-linejoin="round" fill="none"/><line x1="37.29" y1="75.33" x2="24.41" y2="83.46" stroke="#FFFFFF" stroke-width="2" stroke-linejoin="round" fill="none"/><line x1="22.9" y1="54.29" x2="12.16" y2="61.06" stroke="#FFFFFF" stroke-width="2" stroke-linejoin="round" fill="none"/><path d="M33.91 17.18 33.91 28.3 24.17 35.15 12.41 28.3" stroke="#FFFFFF" stroke-width="2" stroke-linejoin="round" fill="none"/><path d="M15.88 47.91 24.17 42.93 24.17 35.58" stroke="#FFFFFF" stroke-width="2" stroke-linejoin="round" fill="none"/><line x1="32.46" y1="47.91" x2="24.17" y2="42.93" stroke="#FFFFFF" stroke-width="2" stroke-linejoin="round" fill="none"/></svg>