<svg viewBox="0 0 109.8 94.93" xmlns="http://www.w3.org/2000/svg" xmlns:xlink="http://www.w3.org/1999/xlink" id="Icons" overflow="hidden"><defs><clipPath id="clippath"><rect x="50.19" y="8.02" width="59.61" height="78.67" fill="none"/></clipPath></defs><g clip-path="url(#clippath)"><g><g><g><line x1="48.41" y1="77.15" x2="48.41" y2="29.56" stroke="#538DF7" stroke-width="2" stroke-linejoin="round" fill="none"/><line x1="37.76" y1="29.56" x2="98.3" y2="29.56" stroke="#538DF7" stroke-width="2" stroke-linejoin="round" fill="none"/></g><path d="M97.04 77.14C97.74 77.14 98.3 76.41 98.3 75.51L98.3 20.77C98.3 19.87 97.73 19.14 97.04 19.14L39.05 19.14C38.35 19.14 37.79 19.87 37.79 20.76L37.76 75.52C37.76 76.41 38.32 77.14 39.01 77.15L97.04 77.15Z" stroke="#538DF7" stroke-width="2" stroke-linejoin="round" fill="none"/></g><line x1="80.6" y1="24.35" x2="83.4" y2="24.35" stroke="#538DF7" stroke-width="2" stroke-linejoin="round" fill="none"/><line x1="85.08" y1="24.35" x2="87.89" y2="24.35" stroke="#538DF7" stroke-width="2" stroke-linejoin="round" fill="none"/><line x1="89.57" y1="24.35" x2="92.37" y2="24.35" stroke="#538DF7" stroke-width="2" stroke-linejoin="round" fill="none"/></g><g><circle cx="72.86" cy="53.35" r="16.71" stroke="#538DF7" stroke-width="2" stroke-linejoin="round" fill="none"/><ellipse cx="72.66" cy="53.35" rx="9.26" ry="16.71" stroke="#538DF7" stroke-width="2" stroke-linejoin="round" fill="none"/><line x1="56.16" y1="53.15" x2="89.4" y2="53.15" stroke="#538DF7" stroke-width="2" stroke-linejoin="round" fill="none"/><line x1="72.66" y1="36.83" x2="72.66" y2="69.88" stroke="#538DF7" stroke-width="2" stroke-linejoin="round" fill="none"/><path d="M72.86 36.65C82.09 36.65 89.57 44.13 89.57 53.36" stroke="#538DF7" stroke-width="2" stroke-linejoin="round" fill="none"/></g></g><path d="M50.19 6.15 50.19 88.59 34.42 93.93 13.26 81.47 13.26 64.82 1 57.6 1 37.14 13.1 29.97 13.1 13.28 34.47 1 50.19 6.15Z" stroke="#FFFFFF" stroke-width="2" stroke-linejoin="round" fill="none"/><line x1="25.59" y1="23.33" x2="25.59" y2="6.16" stroke="#FFFFFF" stroke-width="2" stroke-linejoin="round" fill="none"/><line x1="23.89" y1="73.27" x2="50.56" y2="57.56" stroke="#FFFFFF" stroke-width="2" stroke-linejoin="round" fill="none"/><line x1="39.52" y1="79.89" x2="25.84" y2="88.52" stroke="#FFFFFF" stroke-width="2" stroke-linejoin="round" fill="none"/><line x1="24.25" y1="57.56" x2="12.85" y2="64.75" stroke="#FFFFFF" stroke-width="2" stroke-linejoin="round" fill="none"/><path d="M35.93 18.18 35.93 29.97 25.59 37.25 13.1 29.97" stroke="#FFFFFF" stroke-width="2" stroke-linejoin="round" fill="none"/><path d="M16.8 50.79 25.59 45.51 25.59 37.7" stroke="#FFFFFF" stroke-width="2" stroke-linejoin="round" fill="none"/><line x1="34.39" y1="50.79" x2="25.59" y2="45.51" stroke="#FFFFFF" stroke-width="2" stroke-linejoin="round" fill="none"/></svg>