<svg viewBox="0 0 105 92.86" xmlns="http://www.w3.org/2000/svg" xmlns:xlink="http://www.w3.org/1999/xlink" id="Icons" overflow="hidden"><defs><clipPath id="clippath"><rect x="49.1" y="10.62" width="55.9" height="70.9" fill="none"/></clipPath></defs><g><g clip-path="url(#clippath)"><g><rect x="78.25" y="25.76" width="21.28" height="2" fill="#7638FA" transform="matrix(0.745127 -0.666923 0.666923 0.745127 4.81 66.11)"/><rect x="69.4" y="26.75" width="2" height="10.26" fill="#7638FA" transform="matrix(0.564103 -0.825705 0.825705 0.564103 4.36 72.02)"/><rect x="50.34" y="32.09" width="10.44" height="2" fill="#7638FA" transform="matrix(0.733493 -0.679697 0.679697 0.733493 -7.68 46.58)"/><path d="M53.58 73.14 43.45 73.14C42.9 73.14 42.45 72.69 42.45 72.14L42.45 51.4C42.45 50.85 42.9 50.4 43.45 50.4L53.58 50.4C54.13 50.4 54.58 50.85 54.58 51.4L54.58 72.14C54.58 72.69 54.13 73.14 53.58 73.14ZM44.45 71.14 52.58 71.14 52.58 52.4 44.45 52.4 44.45 71.14Z" fill="#7638FA"/><path d="M67.67 73.14 57.54 73.14C56.99 73.14 56.54 72.69 56.54 72.14L56.54 40.64C56.54 40.09 56.99 39.64 57.54 39.64L67.67 39.64C68.22 39.64 68.67 40.09 68.67 40.64L68.67 72.14C68.67 72.69 68.22 73.14 67.67 73.14ZM58.54 71.14 66.67 71.14 66.67 41.64 58.54 41.64 58.54 71.14Z" fill="#7638FA"/><path d="M82.71 73.14 72.58 73.14C72.03 73.14 71.58 72.69 71.58 72.14L71.58 48.23C71.58 47.68 72.03 47.23 72.58 47.23L82.71 47.23C83.26 47.23 83.71 47.68 83.71 48.23L83.71 72.14C83.71 72.69 83.26 73.14 82.71 73.14ZM73.58 71.14 81.71 71.14 81.71 49.23 73.58 49.23 73.58 71.14Z" fill="#7638FA"/><path d="M97.43 73.14 87.3 73.14C86.75 73.14 86.3 72.69 86.3 72.14L86.3 36.84C86.3 36.29 86.75 35.84 87.3 35.84L97.43 35.84C97.98 35.84 98.43 36.29 98.43 36.84L98.43 72.14C98.43 72.69 97.98 73.14 97.43 73.14ZM88.3 71.14 96.43 71.14 96.43 37.84 88.3 37.84 88.3 71.14Z" fill="#7638FA"/><path d="M48.51 44.56C45.78 44.56 43.55 42.34 43.55 39.6 43.55 36.86 45.77 34.64 48.51 34.64 51.25 34.64 53.47 36.86 53.47 39.6 53.47 42.34 51.25 44.56 48.51 44.56ZM48.51 36.65C46.88 36.65 45.55 37.98 45.55 39.61 45.55 41.24 46.88 42.57 48.51 42.57 50.14 42.57 51.47 41.24 51.47 39.61 51.47 37.98 50.14 36.65 48.51 36.65Z" fill="#7638FA"/><path d="M62.61 31.51C59.88 31.51 57.65 29.29 57.65 26.55 57.65 23.81 59.87 21.59 62.61 21.59 65.35 21.59 67.57 23.81 67.57 26.55 67.57 27.55 67.27 28.52 66.7 29.35L66.7 29.35C65.77 30.7 64.24 31.51 62.61 31.51ZM62.61 23.6C60.98 23.6 59.65 24.93 59.65 26.56 59.65 28.19 60.98 29.52 62.61 29.52 63.59 29.52 64.5 29.04 65.05 28.23L65.05 28.23C65.39 27.74 65.57 27.16 65.57 26.56 65.57 24.93 64.24 23.6 62.61 23.6Z" fill="#7638FA"/><path d="M77.65 41.79C74.92 41.79 72.69 39.57 72.69 36.83 72.69 34.09 74.91 31.87 77.65 31.87 80.39 31.87 82.61 34.09 82.61 36.83 82.61 39.57 80.39 41.79 77.65 41.79ZM77.65 33.88C76.02 33.88 74.69 35.21 74.69 36.84 74.69 38.47 76.02 39.8 77.65 39.8 79.28 39.8 80.61 38.47 80.61 36.84 80.61 35.21 79.28 33.88 77.65 33.88Z" fill="#7638FA"/></g></g><path d="M98.37 28.02 96.37 28.02 96.37 20.16 88.51 20.16 88.51 18.16 97.37 18.16C97.92 18.16 98.37 18.61 98.37 19.16L98.37 28.02Z" fill="#7638FA"/></g><path d="M33.67 92.86C33.49 92.86 33.32 92.81 33.16 92.72L12.47 80.54C12.16 80.36 11.98 80.03 11.98 79.68L11.98 63.97 0.49 57.21C0.19 57.03 0 56.7 0 56.35L0 36.35C0 36 0.19 35.67 0.49 35.49L11.84 28.77 11.84 13.02C11.84 12.66 12.03 12.33 12.34 12.15L33.23 0.13C33.48-0.01 33.77-0.04 34.04 0.05L49.41 5.09C49.82 5.22 50.1 5.61 50.1 6.04L50.1 86.65C50.1 87.08 49.83 87.46 49.42 87.6L33.99 92.81C33.89 92.85 33.78 92.86 33.67 92.86ZM13.98 79.11 33.78 90.77 48.09 85.93 48.09 6.76 33.83 2.09 13.84 13.58 13.84 29.33C13.84 29.68 13.65 30.01 13.35 30.19L2 36.91 2 55.77 13.49 62.54C13.79 62.72 13.98 63.05 13.98 63.4L13.98 79.11Z" fill="#FFFFFF"/><rect x="24.04" y="6.04" width="2" height="16.8" fill="#FFFFFF"/><rect x="21.29" y="62.98" width="30.26" height="2" fill="#FFFFFF" transform="matrix(0.861452 -0.507839 0.507839 0.861452 -27.45 27.36)"/><rect x="24.07" y="81.35" width="15.81" height="2" fill="#FFFFFF" transform="matrix(0.845914 -0.533319 0.533319 0.845914 -38.99 29.74)"/><rect x="11.57" y="58.81" width="13.18" height="2" fill="#FFFFFF" transform="matrix(0.845914 -0.533319 0.533319 0.845914 -29.1 18.9)"/><path d="M25.04 37.44C24.87 37.44 24.69 37.4 24.54 37.3L12.33 30.18 13.34 28.45 24.99 35.24 34.15 28.79 34.15 17.78 36.15 17.78 36.15 29.31C36.15 29.64 35.99 29.94 35.73 30.13L25.62 37.25C25.45 37.37 25.25 37.43 25.04 37.43Z" fill="#FFFFFF"/><path d="M16.96 50.54 15.93 48.83 24.05 43.96 24.05 36.89 26.05 36.89 26.05 44.52C26.05 44.87 25.87 45.2 25.56 45.38L16.96 50.55Z" fill="#FFFFFF"/><rect x="28.35" y="42.08" width="2" height="10.03" fill="#FFFFFF" transform="matrix(0.514739 -0.857347 0.857347 0.514739 -26.14 48.01)"/></svg>