<svg viewBox="0 0 105 92.86" xmlns="http://www.w3.org/2000/svg" xmlns:xlink="http://www.w3.org/1999/xlink" id="Icons" overflow="hidden"><defs><clipPath id="clippath"><rect x="49.1" y="10.62" width="55.9" height="70.9" fill="none"/></clipPath></defs><g><g clip-path="url(#clippath)"><g><line x1="80.97" y1="33.86" x2="96.82" y2="19.66" stroke="#01A88D" stroke-width="2" stroke-linejoin="round" fill="none"/><line x1="66.16" y1="28.99" x2="74.63" y2="34.78" stroke="#01A88D" stroke-width="2" stroke-linejoin="round" fill="none"/><line x1="51.73" y1="36.63" x2="59.38" y2="29.54" stroke="#01A88D" stroke-width="2" stroke-linejoin="round" fill="none"/><rect x="43.45" y="51.4" width="10.13" height="20.74" stroke="#01A88D" stroke-width="2" stroke-linejoin="round" fill="none"/><rect x="57.54" y="40.63" width="10.13" height="31.5" stroke="#01A88D" stroke-width="2" stroke-linejoin="round" fill="none"/><rect x="72.58" y="48.23" width="10.13" height="23.91" stroke="#01A88D" stroke-width="2" stroke-linejoin="round" fill="none"/><rect x="87.3" y="36.83" width="10.13" height="35.3" stroke="#01A88D" stroke-width="2" stroke-linejoin="round" fill="none"/><circle cx="48.52" cy="39.61" r="3.96" stroke="#01A88D" stroke-width="2" stroke-linejoin="round" fill="none"/><path d="M65.87 28.79C66.31 28.15 66.56 27.39 66.56 26.56 66.56 24.37 64.79 22.6 62.6 22.6 60.41 22.6 58.64 24.37 58.64 26.56 58.64 28.75 60.41 30.52 62.6 30.52 63.96 30.52 65.16 29.84 65.87 28.8" stroke="#01A88D" stroke-width="2" stroke-linejoin="round" fill="none"/><circle cx="77.65" cy="36.83" r="3.96" stroke="#01A88D" stroke-width="2" stroke-linejoin="round" fill="none"/></g></g><path d="M88.51 19.16 97.37 19.16 97.37 28.02" stroke="#01A88D" stroke-width="2" stroke-linejoin="round" fill="none"/></g><path d="M49.1 6.04 49.1 86.65 33.67 91.86 12.98 79.68 12.98 63.4 1 56.34 1 36.34 12.84 29.33 12.84 13 33.73 1 49.1 6.04Z" stroke="#FFFFFF" stroke-width="2" stroke-linejoin="round" fill="none"/><line x1="25.05" y1="22.84" x2="25.05" y2="6.04" stroke="#FFFFFF" stroke-width="2" stroke-linejoin="round" fill="none"/><line x1="23.38" y1="71.66" x2="49.45" y2="56.3" stroke="#FFFFFF" stroke-width="2" stroke-linejoin="round" fill="none"/><line x1="38.66" y1="78.14" x2="25.29" y2="86.57" stroke="#FFFFFF" stroke-width="2" stroke-linejoin="round" fill="none"/><line x1="23.73" y1="56.3" x2="12.58" y2="63.33" stroke="#FFFFFF" stroke-width="2" stroke-linejoin="round" fill="none"/><path d="M35.16 17.8 35.16 29.33 25.05 36.44 12.84 29.33" stroke="#FFFFFF" stroke-width="2" stroke-linejoin="round" fill="none"/><path d="M16.44 49.68 25.05 44.52 25.05 36.89" stroke="#FFFFFF" stroke-width="2" stroke-linejoin="round" fill="none"/><line x1="33.65" y1="49.68" x2="25.05" y2="44.52" stroke="#FFFFFF" stroke-width="2" stroke-linejoin="round" fill="none"/></svg>